<svg width="109" height="109" viewBox="0 0 109 109" fill="none" xmlns="http://www.w3.org/2000/svg">
<path d="M54.5 9.08333C60.4642 9.08333 66.37 10.2581 71.8802 12.5405C77.3904 14.8229 82.3971 18.1682 86.6144 22.3856C90.8318 26.6029 94.1771 31.6096 96.4595 37.1198C98.7419 42.63 99.9167 48.5358 99.9167 54.5C99.9167 66.5452 95.1317 78.0972 86.6144 86.6144C78.0972 95.1317 66.5453 99.9167 54.5 99.9167C48.5358 99.9167 42.63 98.7419 37.1198 96.4595C31.6096 94.1771 26.6029 90.8318 22.3856 86.6144C13.8683 78.0972 9.08334 66.5452 9.08334 54.5C9.08334 42.4547 13.8683 30.9028 22.3856 22.3856C30.9028 13.8683 42.4548 9.08333 54.5 9.08333V9.08333ZM54.5 18.1667C35.97 18.1667 20.6646 32.0187 18.4392 49.9583H36.9238C38.9221 42.1012 46.0525 36.3333 54.5 36.3333C62.9475 36.3333 70.0779 42.1012 72.0763 49.9583H90.5608C88.3354 32.0187 73.03 18.1667 54.5 18.1667ZM54.5 90.8333C73.03 90.8333 88.3354 76.9812 90.5608 59.0417H72.0763C70.0779 66.8987 62.9475 72.6667 54.5 72.6667C46.0525 72.6667 38.9221 66.8987 36.9238 59.0417H18.4392C20.6646 76.9812 35.97 90.8333 54.5 90.8333ZM54.5 45.4167C52.091 45.4167 49.7806 46.3737 48.0771 48.0771C46.3737 49.7806 45.4167 52.0909 45.4167 54.5C45.4167 56.909 46.3737 59.2194 48.0771 60.9229C49.7806 62.6263 52.091 63.5833 54.5 63.5833C56.9091 63.5833 59.2194 62.6263 60.9229 60.9229C62.6263 59.2194 63.5833 56.909 63.5833 54.5C63.5833 52.0909 62.6263 49.7806 60.9229 48.0771C59.2194 46.3737 56.9091 45.4167 54.5 45.4167Z" fill="white" fill-opacity="0.5"/>
</svg>
